<?xml version="1.0" encoding="UTF-8"?>
<svg id="Layer_2" data-name="Layer 2" xmlns="http://www.w3.org/2000/svg" xmlns:xlink="http://www.w3.org/1999/xlink" viewBox="0 0 556.27 279.36">
  <defs>
    <style>
      .cls-1 {
        fill: #232323;
      }

      .cls-2 {
        fill: url(#linear-gradient-5);
      }

      .cls-3 {
        fill: url(#linear-gradient-4);
      }

      .cls-4 {
        fill: url(#linear-gradient-3);
      }

      .cls-5 {
        fill: url(#linear-gradient-2);
      }

      .cls-6 {
        fill: url(#linear-gradient);
      }
    </style>
    <linearGradient id="linear-gradient" x1="414.34" y1="167.34" x2="368.46" y2="66.95" gradientUnits="userSpaceOnUse">
      <stop offset="0" stop-color="#9ad8d8"/>
      <stop offset="1" stop-color="#2b8a8e"/>
    </linearGradient>
    <linearGradient id="linear-gradient-2" x1="490.45" y1="149.38" x2="475.32" y2="175.46" xlink:href="#linear-gradient"/>
    <linearGradient id="linear-gradient-3" x1="336.72" y1="44.54" x2="442.82" y2="33.3" xlink:href="#linear-gradient"/>
    <linearGradient id="linear-gradient-4" x1="488.21" y1="83.48" x2="545.78" y2="158.92" xlink:href="#linear-gradient"/>
    <linearGradient id="linear-gradient-5" x1="392.64" y1="234.48" x2="531.52" y2="190.07" xlink:href="#linear-gradient"/>
  </defs>
  <g id="Layer_1" data-name="Layer 1">
    <g>
      <g>
        <path class="cls-1" d="M0,153.42h36.31l18.07,48.59c5.79,15.79,10.88,34.03,11.75,39.82h.7c.88-5.79,5.61-23.85,11.58-39.99l18.07-48.41h35.43l-49.29,122.78h-33.33L0,153.42Z"/>
        <path class="cls-1" d="M119.97,215.51c0-39.64,26.66-65.25,68.58-65.25s66.48,24.91,66.48,63.85-26.66,65.25-68.58,65.25-66.48-24.91-66.48-63.84ZM221.7,215.51c0-22.28-13.51-36.66-33.85-36.66s-34.55,14.73-34.55,35.26c0,22.28,13.51,36.48,33.85,36.48s34.55-13.68,34.55-35.08Z"/>
        <path class="cls-1" d="M367.28,276.2h-40.17l-12.63-21.57c-4.74-8.24-8.42-14.91-10.17-19.29h-.7c-1.4,3.51-5.79,12.1-10.35,19.82l-12.45,21.05h-39.29l40.87-61.74-38.41-61.04h38.59l11.58,20.35c3.51,6.31,7.89,15.08,9.82,20.52h.7c1.75-4.91,6.14-13.16,10.35-20.35l11.93-20.52h37.89l-38.59,61.04,41.04,61.74Z"/>
      </g>
      <g>
        <path class="cls-6" d="M370.69,36.48l57.19,127.29c-9.72,1.66-18.61,5.77-25.99,11.69l-57.19-127.29,25.99-11.68Z"/>
        <path class="cls-5" d="M525.4,125.46l-43.43,58.64c-6.03-7.43-13.89-13.31-22.89-16.97l43.42-58.63,22.9,16.96Z"/>
        <circle class="cls-4" cx="357.7" cy="42.32" r="42.32"/>
        <circle class="cls-3" cx="513.95" cy="117.21" r="42.32"/>
        <path class="cls-2" d="M494.73,220.1c0,31.57-25.59,57.16-57.16,57.16s-57.16-25.59-57.16-57.16c0-18.07,8.39-34.18,21.48-44.65,7.38-5.91,16.27-10.03,25.99-11.69,3.15-.54,6.39-.82,9.69-.82,7.61,0,14.87,1.49,21.51,4.18,9,3.66,16.86,9.54,22.89,16.97,7.98,9.82,12.76,22.36,12.76,36.01Z"/>
      </g>
    </g>
  </g>
</svg>